# xmcd CD database file
#
# Track frame offsets:
#	182
#	19365
#	45435
#	66262
#
# Disc length: 1080 seconds
#
# Revision: 1
# Processed by: cddbd v1.5.2PL0 Copyright (c) Steve Scherf et al.
# Submitted via: CDex 1.94
#
DISCID=2f043604
DTITLE=The Afghan Whigs - Debonair CDEp 1
DYEAR=1994
DGENRE=Alt. Rock
TTITLE0=Debonair
TTITLE1=My Curse
TTITLE2=Little Girl Blue
TTITLE3=Ready
EXTD=YEAR: 1994
EXTT0=
EXTT1=
EXTT2=
EXTT3=
PLAYORDER=
